<svg xmlns="http://www.w3.org/2000/svg" width="32" height="31"><path fill-rule="evenodd" fill="#95E1D3" d="M32 16.5c0 .828-.672 1.499-1.5 1.499-.395 0-.752-.155-1.02-.405l-.003.004L16.038 4.159 16 4.122 2.554 17.568h-.001c-.271.267-.643.431-1.053.431-.828 0-1.5-.671-1.5-1.499 0-.425.177-.809.461-1.081L14.919.96c.273-.283.656-.461 1.081-.461h.001c.026 0 .052.001.079.003h.012l.068.006c.001 0 .002 0 .004.001.367.04.694.212.933.468l.001-.001L23 6.878V5.5c0-.829.671-1.501 1.5-1.501.828 0 1.5.672 1.5 1.501v4.378l5.598 5.598-.004.004c.25.267.406.625.406 1.02zM29 19v10.5c0 .828-.672 1.5-1.5 1.5h-3V19h-6v12h-14c-.828 0-1.5-.672-1.5-1.5V19L16 6l13 13zm-15.5 0h-6v6h6v-6z"/></svg>