<svg xmlns="http://www.w3.org/2000/svg" width="32" height="32"><path fill-rule="evenodd" fill="#95E1D3" d="M30.5 32h-29C.672 32 0 31.328 0 30.499v-29C0 .672.672 0 1.5 0h29c.828 0 1.5.672 1.5 1.499v29c0 .829-.672 1.501-1.5 1.501zM29 3H3v26h26V3zM5.215 16.238v-.001l4-2.5v.002a1.49 1.49 0 0 1 .785-.222c.311 0 .6.095.84.257l.006-.008 6.631 4.42 7.638-5.392c.248-.181.554-.289.885-.289.828 0 1.5.672 1.5 1.5 0 .5-.245.943-.622 1.215l.001.001-8.5 6h-.001c-.246.179-.55.284-.878.284-.321 0-.618-.101-.861-.272l-6.657-4.438-3.135 1.96c-.241.165-.533.262-.847.262-.828 0-1.5-.672-1.5-1.5 0-.541.286-1.015.715-1.279z"/></svg>