<svg xmlns="http://www.w3.org/2000/svg" width="32" height="32"><path fill-rule="evenodd" fill="#95E1D3" d="M30.5 32h-29C.671 32 0 31.328 0 30.5v-29C0 .671.671 0 1.5 0h29c.828 0 1.5.671 1.5 1.5v29c0 .828-.672 1.5-1.5 1.5zM29 3H3v25.999h26V3zM6.5 4.5H12c.828 0 1.5.671 1.5 1.5 0 .828-.672 1.499-1.5 1.499H7.5v4.5c0 .829-.672 1.501-1.5 1.501s-1.5-.672-1.5-1.501V4.5h2zM4.5 20c0-.829.672-1.501 1.5-1.501s1.5.672 1.5 1.501v4.499H12v.001c.828 0 1.5.671 1.5 1.5 0 .828-.672 1.5-1.5 1.5H4.5V20zM20 4.5h7.5v7.499c0 .829-.672 1.501-1.5 1.501s-1.5-.672-1.5-1.501v-4.5H20c-.828 0-1.5-.671-1.5-1.499 0-.829.672-1.5 1.5-1.5zm0 20v-.001h4.5V20c0-.829.672-1.501 1.5-1.501s1.5.672 1.5 1.501v7.5H20c-.828 0-1.5-.672-1.5-1.5 0-.829.672-1.5 1.5-1.5z"/></svg>